# xmcd CD database file
#
# Track frame offsets:
#	150
#	10295
#	14616
#	18495
#	32447
#	36170
#	46263
#	54640
#	60677
#	65362
#	76417
#	87280
#	92406
#	99535
#	102712
#	107865
#	119035
#	120626
#	130875
#	139616
#
# Disc length: 1980 seconds
#
# Revision: 0
# Processed by: cddbd v1.5.2PL0 Copyright (c) Steve Scherf et al.
# Submitted via: CDex 1.51
#
DISCID=1007ba14
DTITLE=Various Artist - 60 Happy Toddler Tunes [CD1]
DYEAR=2004
DGENRE=Childrens
TTITLE0=There's A Hole In My Pocket
TTITLE1=Pussy Cat, Pussy Cat
TTITLE2=Baa Baa Black Sheep
TTITLE3=The Hokey Pokey
TTITLE4=Eensy Weensy Spider
TTITLE5=If You're Happy And You Know It
TTITLE6=Ain't It Great To Be Crazy
TTITLE7=One Potato
TTITLE8=Wheels On The Bus
TTITLE9=The Ants Go Marching
TTITLE10=London Bridge Is Falling Down
TTITLE11=I'm A Little Teapot
TTITLE12=Do Your Ears Hang Low
TTITLE13=10 Little Indians
TTITLE14=Farmer In The Dell
TTITLE15=Down By The Bay
TTITLE16=Fuzzy Wuzzy
TTITLE17=Hush Little Baby
TTITLE18=On Top Of Old Smokey
TTITLE19=Now I Lay Me Down To Sleep
EXTD=YEAR: 2004
EXTT0=
EXTT1=
EXTT2=
EXTT3=
EXTT4=
EXTT5=
EXTT6=
EXTT7=
EXTT8=
EXTT9=
EXTT10=
EXTT11=
EXTT12=
EXTT13=
EXTT14=
EXTT15=
EXTT16=
EXTT17=
EXTT18=
EXTT19=
PLAYORDER=
